<?xml version="1.0" encoding="UTF-8"?><svg id="Layer_1" xmlns="http://www.w3.org/2000/svg" viewBox="0 0 438.07 77.57"><defs><style>.cls-1{fill:#ec77bf;}.cls-2{fill:#fff;}.cls-3{fill:#30d05d;}.cls-4{fill:#2d2f30;}.cls-5{fill:#585959;}.cls-6{fill:#619dff;}</style></defs><rect class="cls-4" x="1" y="1" width="436.06" height="75.56" rx="8.54" ry="8.54"/><path class="cls-5" d="M428.52,1c4.72,0,8.54,3.82,8.54,8.54v58.48c0,4.72-3.82,8.54-8.54,8.54H9.55c-4.72,0-8.54-3.82-8.54-8.54V9.55C1,4.83,4.83,1,9.55,1H428.52m0-1H9.55C4.28,0,0,4.28,0,9.55v58.48c0,5.26,4.28,9.55,9.55,9.55H428.52c5.26,0,9.55-4.28,9.55-9.55V9.55c0-5.26-4.28-9.55-9.55-9.55h0Z"/><g><g><path class="cls-2" d="M28.59,38.98c0-11.32,6.89-19.27,17.83-19.27,9.35,0,15.76,6.17,16.77,14.36h-6.07c-.96-5.21-5.16-9.01-11.04-9.01-7.04,0-11.32,5.69-11.32,13.73s4.29,13.74,11.42,13.74c5.88,0,10.02-3.9,10.94-9.06h6.07c-1.06,8.29-7.47,14.41-16.96,14.41-10.99,0-17.64-7.86-17.64-18.89Z"/><path class="cls-2" d="M66.05,44.42c0-7.8,4.91-13.4,12.53-13.4s12.43,5.59,12.43,13.4-4.87,13.45-12.43,13.45-12.53-5.78-12.53-13.45Zm19.32,0c0-5.35-2.55-8.67-6.84-8.67s-6.84,3.32-6.84,8.67,2.55,8.72,6.84,8.72,6.84-3.32,6.84-8.72Z"/><path class="cls-2" d="M136.28,41.78v15.32h-5.69v-14.26c0-5.73-2.51-7.08-5.11-7.08-4,0-6.84,3.03-6.84,8.05v13.3h-5.69v-14.26c0-5.73-2.51-7.08-5.11-7.08-4,0-6.84,3.03-6.84,8.05v13.3h-5.69V31.8h5.69v3.81c2.02-3.33,5.11-4.58,8.58-4.58,3.95,0,6.75,1.69,8.1,5.11,2.7-3.95,6.17-5.11,9.54-5.11,5.73,0,9.06,3.52,9.06,10.75Z"/><path class="cls-2" d="M183.2,41.78v15.32h-5.69v-14.26c0-5.73-2.51-7.08-5.11-7.08-4,0-6.84,3.03-6.84,8.05v13.3h-5.69v-14.26c0-5.73-2.51-7.08-5.11-7.08-4,0-6.84,3.03-6.84,8.05v13.3h-5.69V31.8h5.69v3.81c2.02-3.33,5.11-4.58,8.58-4.58,3.95,0,6.75,1.69,8.1,5.11,2.7-3.95,6.17-5.11,9.54-5.11,5.73,0,9.06,3.52,9.06,10.75Z"/><path class="cls-2" d="M187.75,44.42c0-7.8,4.91-13.4,12.53-13.4s12.43,5.59,12.43,13.4-4.87,13.45-12.43,13.45-12.53-5.78-12.53-13.45Zm19.32,0c0-5.35-2.55-8.67-6.84-8.67s-6.84,3.32-6.84,8.67,2.55,8.72,6.84,8.72,6.84-3.32,6.84-8.72Z"/><path class="cls-2" d="M217.02,31.8h5.69v3.81c2.02-3.42,5.4-4.58,8.38-4.58,5.78,0,9.25,4.19,9.25,10.36v15.71h-5.69v-13.88c0-4.91-1.98-7.47-5.35-7.47-3.62,0-6.6,3.03-6.6,8.05v13.3h-5.69V31.8Z"/><path class="cls-2" d="M266.15,26.11v9.21h16.72v5.45h-16.72v16.34h-5.78V20.47h24.63v5.64h-18.84Z"/><path class="cls-2" d="M285.68,50.02c0-2.36,.96-4.34,2.89-5.78,2.17-1.59,5.64-2.55,12.72-2.55h1.4v-1.35c0-2.84-1.3-4.72-4.96-4.72-3.95,0-5.16,2.02-5.25,3.71h-5.49c.1-3.81,2.31-8.24,10.84-8.24,6.51,0,10.6,2.61,10.6,10.94v15.08h-5.45v-3.52h-.1c-1.64,2.6-4.72,4.05-8.58,4.05-6.31,0-8.63-3.9-8.63-7.61Zm17.06-1.25v-3.52h-1.35c-5.49,0-10.02,.91-10.02,4.63,0,2.22,1.69,3.52,4.67,3.52,4.53,0,6.7-2.94,6.7-4.63Z"/><path class="cls-2" d="M314.32,49.97v-13.2h-3.23v-4.43c2.84,0,3.52-1.26,3.52-4.15v-2.89h5.4v6.51h5.35v4.96h-5.35v11.76c0,3.18,1.2,4,4.15,4,.53,0,1.01,0,1.64-.05v4.92c-1.16,.15-2.07,.19-3.42,.19-6.02,0-8.05-2.65-8.05-7.61Z"/><path class="cls-2" d="M328.26,44.38c0-7.81,4.48-13.35,12-13.35,6.75,0,11.76,4.43,11.76,11.57v3.56l-18.02,.05c.38,4.24,2.65,6.94,6.55,6.94,3.23,0,5.35-2.02,5.88-3.81h5.64c-.48,3.81-4.48,8.53-11.62,8.53-7.9,0-12.19-5.78-12.19-13.49Zm18.17-2.17c0-4.38-2.75-6.45-6.12-6.45s-6.26,2.07-6.26,6.45h12.39Z"/></g><g><rect class="cls-1" x="372.09" y="19.7" width="20.96" height="7.79"/><rect class="cls-3" x="372.09" y="49.31" width="29.86" height="7.79"/><rect class="cls-6" x="372.09" y="34.51" width="37.4" height="7.79"/></g></g></svg>